<svg width="40" height="40" fill="none" xmlns="http://www.w3.org/2000/svg"><path d="M38.544 8.674c-.369.532-.623 1.047-1.008 1.433A19497.257 19497.257 0 0 1 8.993 38.66c-1.291 1.288-1.784 1.255-3.14-.08a286.34 286.34 0 0 1-3.273-3.287c-1.473-1.498-1.475-1.888-.007-3.356C11.195 23.31 19.82 14.685 28.445 6.059c.85-.85 1.713-1.688 2.54-2.56.929-.98 1.822-1.047 2.79-.05 1.275 1.316 2.595 2.588 3.865 3.908.34.354.566.816.904 1.317Zm-4.282.172-1.767-2.478-6.583 6.561 2.092 2.246 6.258-6.33Zm-25.477.481c1.27-.463 2.839-.618 3.725-1.477.842-.817.97-2.369 1.538-3.946.569 1.529.72 3.085 1.577 3.923.885.866 2.453 1.033 3.97 1.598-1.513.531-3.076.664-3.956 1.51-.84.807-.97 2.355-1.648 3.786-.418-3.152-2.081-4.956-5.206-5.394Zm-.08-4.319-1.97 2L4.73 5.005 6.743 3l1.962 2.007Zm10.715.032 2.028-2.015 1.947 1.998-2.009 1.958L19.42 5.04Zm18.576 14.65-1.91 2-1.964-2.039 1.97-1.996 1.904 2.034Z" fill="#003284"/></svg>