<svg width="40" height="40" fill="none" xmlns="http://www.w3.org/2000/svg"><path d="M9.775 1.273c.899-.185 1.865-.232 2.753 0 1.094.287 2.11.957 2.93 1.697 1.868 1.687 3.638 3.493 5.338 5.351.632.69 1.085 1.618 1.395 2.514.873 2.517-.074 4.69-1.572 6.614l1.756 2.05c2.752-2.244 5.732-3.009 8.387-.917 3.103 2.445 7.132 5.996 7.917 8.843.275.995.505 2.197 0 3.097-1.206 2.151-3.84 4.783-6.041 6.879-2.209 2.102-5.933 1.903-8.19-.178a96.119 96.119 0 0 1-5.453-5.48c-2.07-2.243-2.209-5.563-.475-8.096.247-.36.491-.723.572-.842l-1.615-2.22c-2.734 2.22-5.666 3.012-8.275 1-3.173-2.45-7.73-7.03-8.03-8.956-.159-1.02-.237-2.093 0-3.097.549-2.32 5.312-7.58 8.603-8.259ZM22.41 25.875c-.915 1.15-.887 2.191.019 3.145a147.268 147.268 0 0 0 4.59 4.634c1.014.977 2.2 1.002 3.24.08a43.147 43.147 0 0 0 3.406-3.388c.832-.92.87-2.035.01-2.949-1.605-1.708-3.255-3.382-4.98-4.969-.9-.827-1.95-.73-2.908.086 1.666 2.437 1.807 3.233.794 4.239-1.02 1.012-1.871.851-4.171-.878Zm-4.956-11.679c.838-1.5.854-2.183-.082-3.17a134.61 134.61 0 0 0-4.594-4.623c-1.023-.978-2.195-.969-3.23-.03A45.967 45.967 0 0 0 6.157 9.77c-.827.925-.84 2.021.033 2.94 1.575 1.657 3.176 3.294 4.848 4.852.933.87 1.993.878 3.038-.099-1.048-1.261-2.311-2.44-.862-4.068.97-1.09 1.795-.92 4.241.801Z" fill="#003284"/></svg>