<svg width="40" height="40" fill="none" xmlns="http://www.w3.org/2000/svg"><path d="M17.943 1.652c1.242-.144 3.444-.101 4.877.07 10.274 1.236 16.931 10.84 15.47 21.14-1.182 8.325-8.024 14.716-16.74 15.634-7.895.832-15.975-4.253-18.817-11.843-2.99-7.982-.286-16.89 6.477-21.689 2.707-1.92 5.523-2.937 8.734-3.31Zm-.24 21.27c-1.325-1.48-2.404-2.788-3.59-3.992-2.888-2.933-3.128-2.895-5.92.23-.777.87-.883 1.696-.045 2.539 2.802 2.819 5.612 5.63 8.43 8.432.838.834 1.722.796 2.543-.023 4.222-4.207 8.438-8.42 12.645-12.641.862-.864.871-1.726.036-2.69-2.68-3.094-3.017-3.13-5.924-.189-2.624 2.656-5.23 5.33-8.175 8.334Z" fill="#003284"/></svg>