<svg width="140" height="140" fill="none" xmlns="http://www.w3.org/2000/svg"><g clip-path="url(#a)"><path d="M140 88.316V140H0V82.573c.722 1.085 1.523 1.992 3.006 1.986 5.783-.025 11.567-.006 17.35-.013 1.454-.002 2.386-.754 2.865-2.099.217-.61.413-1.227.654-1.945.282.263.416.382.543.507 3.28 3.218 6.355 6.686 9.885 9.604 7.049 5.83 14.342 11.363 21.544 17.005 2.989 2.341 6.134 4.397 9.86 5.415 3.635.993 7.172 1.171 10.53-.931.23-.144.621-.21.87-.122 4.196 1.494 9.38-.956 11.752-5.059.353-.61.703-.715 1.401-.671 4.64.292 8.34-1.363 10.881-5.392.271-.429.928-.79 1.448-.858 5.603-.737 9.157-4.897 8.923-10.506-.013-.326.03-.811.236-.962 1.334-.973 2.721-1.874 4.185-2.862.228.66.387 1.08.517 1.51.854 2.801 1.455 3.255 4.359 3.255 5.1.001 10.201-.037 15.301.02 1.763.02 3.09-.521 3.89-2.139ZM0 28.428V0h140v34.171c-.8-1.619-2.105-2.226-3.889-2.114-3.225.204-6.465.222-9.684.49-8.281.686-16.418 2.112-24.214 5.119-2.502.965-2.936 1.577-2.945 4.265-.447-.153-.881-.276-1.296-.446-4.878-2.005-9.767-3.985-14.624-6.04-3.154-1.333-6.329-2.546-9.766-2.908-5.542-.584-10.25 1.42-14.615 4.606-.606.443-1.468.748-2.215.755-6.878.056-13.756.033-20.634.033h-1.426c.075-.692.085-1.193.19-1.673.421-1.906-.24-3.355-1.933-4.23-1.448-.747-2.939-1.472-4.49-1.95-8.242-2.535-16.778-3.208-25.317-3.822-1.594-.114-2.51.847-3.142 2.172Z" fill="#fff"/><path d="M0 28.428c.632-1.325 1.548-2.286 3.142-2.172 8.539.614 17.075 1.287 25.317 3.823 1.551.477 3.042 1.201 4.49 1.95 1.693.874 2.354 2.323 1.934 4.23-.106.48-.116.98-.191 1.672h1.426c6.878 0 13.756.023 20.634-.033.746-.007 1.609-.312 2.215-.755 4.364-3.186 9.073-5.19 14.615-4.606 3.438.362 6.612 1.575 9.766 2.909 4.857 2.054 9.746 4.034 14.624 6.039.415.17.85.293 1.296.446.008-2.688.443-3.3 2.945-4.265 7.796-3.007 15.933-4.433 24.214-5.12 3.219-.267 6.459-.285 9.684-.489 1.784-.112 3.089.495 3.889 2.114v54.145c-.8 1.618-2.127 2.16-3.89 2.14-5.1-.058-10.201-.02-15.301-.02-2.904-.001-3.505-.454-4.359-3.257-.13-.428-.29-.848-.517-1.509-1.464.988-2.851 1.889-4.185 2.862-.206.15-.249.636-.236.962.234 5.609-3.32 9.769-8.923 10.506-.52.068-1.177.429-1.448.858-2.541 4.029-6.24 5.684-10.88 5.392-.7-.044-1.049.061-1.402.671-2.373 4.103-7.556 6.553-11.752 5.059-.249-.088-.64-.022-.87.122-3.358 2.102-6.895 1.924-10.53.931-3.726-1.018-6.871-3.074-9.86-5.415-7.203-5.642-14.495-11.176-21.544-17.005-3.53-2.918-6.604-6.386-9.885-9.605-.127-.124-.26-.243-.543-.506-.24.718-.437 1.335-.654 1.946-.479 1.344-1.411 2.096-2.865 2.098-5.783.007-11.567-.012-17.35.013-1.483.006-2.284-.901-3.006-1.986V28.428Zm84.35 75.061c-4.515-4.654-8.733-9-12.945-13.351-.347-.359-.699-.73-.96-1.15-.744-1.2-.524-2.669.492-3.615a2.86 2.86 0 0 1 3.754-.156c.46.366.842.83 1.26 1.248 4.245 4.256 8.441 8.562 12.757 12.745 1.882 1.823 4.711 1.588 6.597-.253.82-.8.93-1.4-.019-2.337-5.18-5.127-10.284-10.331-15.391-15.53-1.462-1.49-1.507-3.239-.214-4.46 1.27-1.198 2.918-1.071 4.353.375 1.411 1.423 2.777 2.891 4.193 4.31 3.957 3.967 7.91 7.937 11.905 11.865 1.218 1.198 2.383 1.222 3.808.305 1.665-1.07 2.247-2.829 1.338-4.62-.569-1.124-1.28-2.231-2.144-3.14-2.131-2.243-4.264-4.51-6.614-6.512-7.87-6.705-15.83-13.303-23.783-19.908-.287-.239-.915-.279-1.298-.151-1.42.472-2.776 1.154-4.212 1.56-1.008.286-1.75.734-2.443 1.532-4.053 4.669-9.063 6.562-15.173 4.964-4.72-1.235-6.92-4.811-5.974-9.628.896-4.56 3.317-8.327 6.183-11.86.496-.611 1.019-1.2 1.632-1.92H33.728c-.363 1.684-.653 3.339-1.08 4.956-2.142 8.09-4.329 16.166-6.46 24.257-.13.49-.132 1.272.162 1.576 3.448 3.571 6.701 7.396 10.516 10.534 8.297 6.823 16.836 13.358 25.406 19.84 1.72 1.3 3.983 1.918 6.055 2.694.816.306 1.793.182 2.697.254l.261-.531c-3.006-2.913-6.026-5.811-9.01-8.747-1.136-1.117-2.242-2.273-3.262-3.495-1.028-1.232-.855-2.896.276-3.945 1.106-1.026 2.778-1.02 3.96.041.44.395.822.852 1.242 1.27 4.393 4.365 8.76 8.756 13.2 13.074 1.313 1.278 2.573 1.368 4.094.342.978-.661 1.744-1.637 2.565-2.433Zm24.525-20.109c1.554-1.043 3.057-1.993 4.479-3.051.308-.23.565-.936.442-1.278a3900.14 3900.14 0 0 0-10.456-28.707c-.147-.4-.596-.81-1.001-.976a5418.212 5418.212 0 0 0-23.78-9.586c-4.657-1.866-9.316-2.31-13.752.518-5.118 3.263-9.593 7.278-12.843 12.449-1.164 1.852-1.872 4.015-2.618 6.097-.341.953-.242 2.14 1.036 2.452 1.35.329 2.773.657 4.137.566 3.015-.2 4.962-2.205 6.735-4.436.574-.722 1.28-1.517 2.097-1.832 2.573-.992 5.267-1.671 7.838-2.668 1.735-.673 3.005-.345 4.32.894 2.15 2.03 4.39 3.971 6.647 5.884 9.054 7.67 18.83 14.522 26.719 23.674Zm25.212 1.172v-46.6c-9.512.258-18.749 1.476-27.675 4.389 1.851 4.668 3.765 9.146 5.412 13.721 3.266 9.072 6.375 18.2 9.585 27.291.162.46.646 1.14.992 1.147 3.866.082 7.733.052 11.686.052ZM5.917 32.28v46.39h12.407c1.054-3.489 2.128-6.916 3.124-10.366C24.362 58.21 27.214 48.1 28.85 37.69c.204-1.302-.347-1.574-1.287-1.86-7.011-2.131-14.25-2.841-21.646-3.55Z" fill="#003284"/><path d="M84.35 103.489c-.821.796-1.587 1.772-2.565 2.433-1.521 1.026-2.78.936-4.095-.342-4.439-4.318-8.806-8.709-13.199-13.074-.42-.418-.802-.875-1.242-1.27-1.182-1.062-2.854-1.067-3.96-.04-1.13 1.048-1.304 2.712-.276 3.944 1.02 1.222 2.126 2.378 3.262 3.495 2.984 2.936 6.004 5.834 9.01 8.747l-.261.531c-.904-.072-1.881.052-2.697-.254-2.072-.776-4.336-1.394-6.055-2.694-8.57-6.482-17.11-13.017-25.406-19.84-3.815-3.138-7.068-6.963-10.516-10.534-.294-.304-.292-1.085-.163-1.576 2.132-8.091 4.32-16.168 6.46-24.257.428-1.617.718-3.272 1.081-4.956h17.724c-.613.72-1.136 1.309-1.632 1.92-2.866 3.533-5.287 7.3-6.183 11.86-.946 4.817 1.254 8.393 5.974 9.628 6.11 1.598 11.12-.295 15.173-4.964.693-.798 1.435-1.246 2.443-1.532 1.436-.406 2.791-1.088 4.212-1.56.383-.128 1.011-.088 1.299.15C80.69 65.91 88.65 72.509 96.52 79.214c2.35 2.002 4.483 4.269 6.614 6.511.864.91 1.575 2.017 2.144 3.14.909 1.792.327 3.55-1.338 4.621-1.425.917-2.59.893-3.807-.305-3.995-3.928-7.95-7.898-11.906-11.865-1.416-1.419-2.782-2.887-4.193-4.31-1.435-1.446-3.082-1.573-4.353-.374-1.293 1.22-1.248 2.97.214 4.458 5.108 5.2 10.212 10.404 15.392 15.53.947.939.838 1.538.018 2.338-1.886 1.841-4.715 2.076-6.597.253-4.316-4.183-8.512-8.489-12.757-12.745-.417-.419-.8-.882-1.26-1.248a2.861 2.861 0 0 0-3.754.156c-1.016.946-1.236 2.416-.492 3.615.261.42.613.791.96 1.15 4.212 4.352 8.43 8.697 12.945 13.351Z" fill="#fff"/><path d="M108.875 83.38c-7.889-9.152-17.665-16.004-26.719-23.674-2.257-1.913-4.496-3.854-6.648-5.884-1.314-1.24-2.584-1.567-4.32-.894-2.57.997-5.264 1.676-7.837 2.668-.817.315-1.523 1.11-2.097 1.832-1.773 2.23-3.72 4.236-6.735 4.437-1.364.09-2.787-.238-4.137-.567-1.278-.312-1.377-1.499-1.036-2.451.746-2.083 1.454-4.245 2.618-6.098 3.25-5.171 7.725-9.186 12.843-12.449 4.436-2.828 9.095-2.384 13.752-.518 7.933 3.18 15.862 6.369 23.78 9.586.405.165.854.576 1.001.976 3.52 9.556 7.011 19.124 10.456 28.707.123.342-.134 1.048-.442 1.278-1.422 1.058-2.925 2.008-4.479 3.051Zm25.212 1.172c-3.953 0-7.82.03-11.686-.052-.346-.007-.83-.688-.992-1.147-3.21-9.092-6.319-18.22-9.585-27.291-1.647-4.575-3.561-9.053-5.412-13.721 8.926-2.913 18.163-4.131 27.675-4.39v46.6ZM5.917 32.28c7.396.709 14.635 1.419 21.646 3.55.94.286 1.491.558 1.287 1.86-1.636 10.41-4.488 20.519-7.402 30.614-.995 3.45-2.07 6.877-3.123 10.367H5.917V32.28Z" fill="#fff"/></g><defs><clipPath id="a"><path fill="#fff" d="M0 0h140v140H0z"/></clipPath></defs></svg>