<svg width="40" height="40" fill="none" xmlns="http://www.w3.org/2000/svg"><path d="M11.133 17.762c0-3.032-.015-5.896.005-8.76.02-3.078 1.869-5.049 4.848-5.365.58-.062 1.255-.418 1.653-.855 2.25-2.47 5.507-2.49 7.767-.013.348.382.843.794 1.319.865 3.552.53 4.686 1.623 5.344 5.318 4.273.966 5.182 2.262 5.306 6.774.173 6.33-.235 12.579-1.678 18.764-.712 3.049-2.156 4.439-5.285 4.454-4.487.023-8.973-.024-13.46.019-2.166.02-3.804-.822-5.082-2.583-2.416-3.328-4.9-6.606-7.34-9.916-1.802-2.442-1.978-4.783-.55-6.823 1.487-2.127 3.615-2.786 6.483-2.012.159.043.323.065.67.133Zm2.665 7.045c-.323-.114-.463-.119-.517-.19-.76-1-1.505-2.011-2.26-3.014-1.299-1.723-2.85-2.152-4.19-1.167-1.408 1.035-1.517 2.622-.232 4.372 2.466 3.36 4.902 6.747 7.493 10.008.593.746 1.748 1.424 2.665 1.453 4.594.147 9.195.071 13.793.065 1.366-.001 2.147-.617 2.51-2.038 1.696-6.622 1.799-13.363 1.612-20.131-.04-1.422-.849-2.23-2.2-2.396-1.39-.17-2.514.961-2.56 2.573-.05 1.823-.011 3.649-.011 5.473h-.521c-.035-.528-.1-1.057-.101-1.586-.01-2.866-.001-5.732-.007-8.598-.004-2.199-.771-3.301-2.307-3.34-1.563-.038-2.438 1.18-2.444 3.432-.008 2.98.004 5.962-.011 8.942-.002.378-.114.755-.174 1.133l-.423-.059v-1.831c0-3.726.01-7.452-.005-11.178-.008-2.027-.844-3.118-2.344-3.139-1.497-.02-2.37 1.09-2.376 3.093-.014 3.84.001 7.68-.012 11.521-.001.54-.093 1.078-.143 1.616l-.478-.052v-2.038c-.003-2.98.022-5.962-.023-8.942-.021-1.38-.768-2.314-2.149-2.45-1.277-.127-2.189.53-2.505 1.822-.12.49-.076 1.026-.077 1.54-.004 4.985-.003 9.97-.003 15.106Z" fill="#003284"/></svg>