<svg width="32" height="33" fill="none" xmlns="http://www.w3.org/2000/svg"><path d="M16.167 21.344a4.465 4.465 0 0 0 4.467-4.463c0-2.464-2-4.462-4.467-4.462A4.465 4.465 0 0 0 11.7 16.88c0 2.465 2 4.463 4.467 4.463Z" stroke="#000" stroke-width="1.675" stroke-linecap="round" stroke-linejoin="round"/><path d="M20.633 12.42v5.577a3.345 3.345 0 0 0 3.35 3.347 3.352 3.352 0 0 0 3.35-3.347v-1.116a11.14 11.14 0 0 0-2.42-6.933 11.177 11.177 0 0 0-13.518-3.152 11.162 11.162 0 0 0-5.241 5.148A11.147 11.147 0 0 0 9.077 25.5a11.173 11.173 0 0 0 13.88.238" stroke="#000" stroke-width="1.675" stroke-linecap="round" stroke-linejoin="round"/></svg>