<svg width="32" height="33" fill="none" xmlns="http://www.w3.org/2000/svg"><path d="M27 14.664c0 8.547-11 15.873-11 15.873S5 23.211 5 14.664c0-2.915 1.159-5.71 3.222-7.771a11.005 11.005 0 0 1 15.556 0A10.984 10.984 0 0 1 27 14.663Z" stroke="#000" stroke-width="1.833" stroke-linecap="round" stroke-linejoin="round"/><path d="M16 18.327a3.665 3.665 0 0 0 3.667-3.664A3.665 3.665 0 0 0 16 11a3.665 3.665 0 0 0-3.667 3.664A3.665 3.665 0 0 0 16 18.326Z" stroke="#000" stroke-width="1.833" stroke-linecap="round" stroke-linejoin="round"/></svg>