<svg width="32" height="33" fill="none" xmlns="http://www.w3.org/2000/svg"><path d="M27.493 22.389v3.54a2.357 2.357 0 0 1-1.605 2.245 2.366 2.366 0 0 1-.97.115 23.39 23.39 0 0 1-10.194-3.623 23.021 23.021 0 0 1-7.088-7.08A23.34 23.34 0 0 1 4.01 7.353 2.358 2.358 0 0 1 6.36 4.78h3.544a2.364 2.364 0 0 1 2.363 2.03c.15 1.133.427 2.245.827 3.316a2.359 2.359 0 0 1-.532 2.49l-1.5 1.499a18.889 18.889 0 0 0 7.087 7.08l1.5-1.498a2.362 2.362 0 0 1 2.493-.531c1.072.4 2.185.676 3.32.826a2.363 2.363 0 0 1 2.031 2.396Z" stroke="#000" stroke-width="1.772" stroke-linecap="round" stroke-linejoin="round"/></svg>