<svg width="40" height="40" fill="none" xmlns="http://www.w3.org/2000/svg"><path d="M18.383 33.508c-3.239-.103-5.858-.61-8.31-1.9-2.213-1.165-2.27-1.099-3.64 1.07-.358.566-.74 1.126-1.177 1.632-.724.838-1.601 1.145-2.618.482-1.137-.74-1.725-2.267-1.063-3.182.623-.86 1.434-1.622 2.278-2.283 1.163-.912 1.567-1.714 1.143-3.366-1.165-4.534.41-8.45 3.788-11.594 3.292-3.064 7.186-4.81 11.8-4.912 2.957-.065 5.94-.167 8.853-.62 1.38-.213 2.797-1.084 3.89-2.011 2.405-2.039 4.206-1.736 5.089 1.257 2.007 6.8.831 13.045-4.157 18.201-4.404 4.552-9.894 7.097-15.876 7.226Zm7.548-17.226c-2.995.066-6.507.834-9.178 2.64-2.426 1.642-4.56 3.71-6.785 5.633-.649.561-.872 1.33-.196 2.044.747.79 1.493.485 2.177-.143.419-.386.84-.77 1.233-1.182 3.682-3.861 7.976-6.408 13.55-6.278.917.021 1.705-.328 1.691-1.389-.013-1.051-.753-1.37-1.712-1.326-.26.011-.52.001-.78.001Z" fill="#003284"/></svg>