<svg width="40" height="40" viewBox="0 0 40 40" fill="none" xmlns="http://www.w3.org/2000/svg">
<path d="M20.101 1.90495C24.1833 1.90481 28.2656 1.89962 32.3479 1.90677C34.7879 1.91104 35.0373 2.17277 35.0384 4.67336C35.0408 10.013 34.9626 15.3542 35.0656 20.6919C35.1356 24.3166 33.8515 27.3465 31.5508 30.0128C28.649 33.3757 25.0458 35.8202 21.0737 37.7177C20.5047 37.9895 19.5853 37.9992 19.0198 37.7284C14.9451 35.7775 11.2451 33.2736 8.31859 29.7714C6.14165 27.1663 4.93675 24.217 5.00243 20.7214C5.10485 15.27 5.02584 9.81533 5.03142 4.36206C5.03359 2.251 5.3666 1.91467 7.514 1.90857C11.7097 1.89667 15.9054 1.90509 20.101 1.90495ZM20.0956 33.2699C24.0604 31.0443 27.6413 28.7133 29.7565 24.7597C30.2923 23.7582 30.5152 22.4937 30.5547 21.3388C30.6612 18.2188 30.5916 15.0927 30.5918 11.969C30.5919 10.1693 30.5919 8.36956 30.5919 6.54851C26.9697 6.54851 23.5535 6.54851 20.0955 6.54851C20.0956 15.4518 20.0956 24.221 20.0956 33.2699Z" fill="#003284"/>
</svg>
