<svg width="40" height="40" viewBox="0 0 40 40" fill="none" xmlns="http://www.w3.org/2000/svg">
<path d="M38.5436 8.67429C38.175 9.20631 37.9207 9.72131 37.5363 10.1066C28.0317 19.6341 18.5173 29.1518 8.99299 38.6596C7.70202 39.9483 7.20908 39.9153 5.85311 38.5803C4.75141 37.4956 3.66437 36.3958 2.58039 35.2934C1.10708 33.7949 1.10498 33.4053 2.57252 31.937C11.1952 23.3098 19.8207 14.6854 28.4447 6.0595C29.2949 5.2091 30.1578 4.37057 30.9849 3.49816C31.9138 2.51839 32.8075 2.45248 33.7743 3.44943C35.0499 4.76477 36.3704 6.03676 37.6403 7.35743C37.98 7.71067 38.2058 8.17334 38.5436 8.67429ZM34.2619 8.84551C33.699 8.05596 33.0631 7.164 32.4954 6.36774C30.1592 8.69628 28.0232 10.8254 25.9123 12.9293C26.6142 13.6827 27.3374 14.4591 28.0042 15.1748C30.2445 12.9089 32.392 10.7368 34.2619 8.84551Z" fill="#003284"/>
<path d="M8.78479 9.32667C10.0552 8.86392 11.6236 8.7087 12.5099 7.84966C13.3519 7.03347 13.4805 5.48118 14.0483 3.90372C14.6167 5.43261 14.7687 6.98937 15.6246 7.82671C16.5097 8.69263 18.0783 8.85999 19.5942 9.4247C18.0822 9.95604 16.5186 10.0894 15.6387 10.9345C14.7983 11.7418 14.6697 13.2901 13.9912 14.7208C13.5735 11.5688 11.9097 9.76545 8.78479 9.32667Z" fill="#003284"/>
<path d="M8.70485 5.00775C8.07984 5.64265 7.33846 6.39576 6.73554 7.00821C6.13198 6.40533 5.36438 5.63859 4.72974 5.00466C5.32777 4.40942 6.09537 3.6454 6.74272 3.00107C7.3023 3.57335 8.0652 4.35358 8.70485 5.00775Z" fill="#003284"/>
<path d="M19.4199 5.03934C20.1 4.36391 20.8098 3.6589 21.4483 3.02472C22.0157 3.60726 22.7589 4.37017 23.3946 5.02274C22.8249 5.57827 22.0498 6.33417 21.3862 6.98134C20.8007 6.40305 20.0099 5.62203 19.4199 5.03934Z" fill="#003284"/>
<path d="M37.996 19.6891C37.3691 20.3458 36.6372 21.1125 36.0855 21.6904C35.4658 21.0468 34.7475 20.3008 34.1222 19.6514C34.7014 19.0645 35.4393 18.3167 36.092 17.6553C36.6342 18.2344 37.3584 19.008 37.996 19.6891Z" fill="#003284"/>
</svg>
