<svg width="40" height="40" viewBox="0 0 40 40" fill="none" xmlns="http://www.w3.org/2000/svg">
<path d="M9.77478 1.2733C10.6735 1.08803 11.64 1.0406 12.5276 1.2733C13.6222 1.56026 14.6385 2.22993 15.4576 2.96983C17.3258 4.65725 19.0964 6.46281 20.7964 8.32114C21.4279 9.01146 21.8806 9.93865 22.1913 10.8353C23.0635 13.3525 22.1166 15.5253 20.6191 17.4487C21.2521 18.1883 21.797 18.8249 22.3745 19.4996C25.1268 17.2554 28.107 16.4904 30.7615 18.5817C33.8652 21.0269 37.8937 24.5783 38.6795 27.4252C38.9541 28.4203 39.1844 29.6217 38.6795 30.5221C37.4731 32.6733 34.8391 35.3046 32.6378 37.4005C30.4294 39.5032 26.705 39.3043 24.4489 37.2235C22.5557 35.4775 20.7416 33.6367 18.9946 31.7436C16.9241 29.4999 16.7861 26.1804 18.5202 23.6469C18.767 23.2865 19.0114 22.9244 19.0923 22.8053C18.4926 21.9809 17.9947 21.2964 17.4771 20.5847C14.7435 22.8044 11.8114 23.5974 9.20211 21.5841C6.0285 19.1355 1.47268 14.5551 1.17218 12.6287C1.01308 11.6087 0.934684 10.5364 1.17218 9.53178C1.72078 7.21132 6.48428 1.95161 9.77478 1.2733ZM22.4107 25.8753C21.496 27.0253 21.5241 28.0664 22.43 29.0197C23.9276 30.5955 25.4537 32.1466 27.0195 33.6544C28.0335 34.6308 29.2192 34.6558 30.2609 33.7343C31.4587 32.6747 32.593 31.5325 33.6657 30.3457C34.4978 29.4251 34.5352 28.311 33.6766 27.3973C32.0711 25.6886 30.4206 24.0153 28.6958 22.4284C27.7965 21.6011 26.7466 21.6973 25.7881 22.514C27.4542 24.9508 27.5951 25.7465 26.5818 26.7527C25.5623 27.7651 24.7106 27.604 22.4107 25.8753ZM17.455 14.1963C18.293 12.6955 18.3089 12.0129 17.3725 11.0252C15.8783 9.44916 14.3475 7.90514 12.7788 6.40333C11.7564 5.42451 10.5841 5.43442 9.54908 6.37336C8.36502 7.44756 7.22243 8.57803 6.15747 9.76954C5.33032 10.695 5.31757 11.7911 6.19048 12.71C7.76491 14.3674 9.36612 16.0044 11.0378 17.5623C11.9706 18.4315 13.0306 18.4401 14.0762 17.4633C13.028 16.2019 11.7647 15.0225 13.2145 13.3946C14.1843 12.3058 15.009 12.4752 17.455 14.1963Z" fill="#003284"/>
</svg>
