<svg width="40" height="40" viewBox="0 0 40 40" fill="none" xmlns="http://www.w3.org/2000/svg">
<path d="M11.1334 17.7621C11.1334 14.7302 11.1179 11.8657 11.1376 9.0015C11.1587 5.9241 13.0067 3.95312 15.9856 3.63701C16.5668 3.57534 17.2407 3.21867 17.6389 2.78164C19.8896 0.311445 23.1464 0.291645 25.4058 2.76942C25.7541 3.15137 26.2493 3.56311 26.7245 3.63412C30.2769 4.16493 31.4112 5.25672 32.0686 8.95173C36.3415 9.91781 37.2512 11.2142 37.3746 15.726C37.5477 22.0564 37.1398 28.3048 35.6967 34.4895C34.9852 37.5386 33.5415 38.9288 30.4118 38.9445C25.9254 38.967 21.4386 38.9205 16.9524 38.9628C14.7858 38.9832 13.1479 38.141 11.87 36.3802C9.45432 33.0517 6.97 29.774 4.52924 26.4638C2.7285 24.0217 2.55221 21.6813 3.97961 19.6406C5.46745 17.5135 7.59472 16.8545 10.4626 17.6294C10.6216 17.6724 10.7863 17.6942 11.1334 17.7621ZM13.7984 24.8069C13.475 24.6927 13.3351 24.6884 13.2812 24.6175C12.521 23.6176 11.7765 22.6056 11.0203 21.6026C9.72197 19.8805 8.17108 19.4513 6.83117 20.4358C5.42252 21.4709 5.31358 23.058 6.59866 24.8084C9.06546 28.1684 11.5015 31.5551 14.092 34.8159C14.6846 35.5618 15.8399 36.2399 16.7575 36.2692C21.3513 36.416 25.9522 36.3404 30.5505 36.3344C31.9164 36.3326 32.6968 35.7166 33.0605 34.2964C34.7562 27.6737 34.8588 20.9331 34.672 14.1648C34.6327 12.7425 33.8234 11.9348 32.4722 11.7689C31.0819 11.5982 29.9578 12.7302 29.9125 14.3416C29.8613 16.1648 29.9007 17.9906 29.9007 19.8152C29.7271 19.8153 29.5535 19.8154 29.3799 19.8155C29.3445 19.2867 29.2804 18.758 29.2786 18.2291C29.2684 15.363 29.2777 12.4969 29.2723 9.63088C29.2682 7.43198 28.5007 6.32961 26.9645 6.29187C25.4025 6.2535 24.5272 7.47113 24.5211 9.7232C24.5131 12.7039 24.5249 15.6847 24.51 18.6653C24.5081 19.0431 24.3964 19.4203 24.3356 19.7978C24.1948 19.7783 24.0541 19.7587 23.9134 19.7392C23.9134 19.1287 23.9134 18.5183 23.9133 17.9078C23.9131 14.1819 23.9235 10.456 23.9085 6.73014C23.9004 4.70317 23.0642 3.61173 21.5636 3.59105C20.0675 3.57044 19.1947 4.68065 19.1876 6.68374C19.1739 10.5242 19.189 14.3648 19.1763 18.2053C19.1746 18.7442 19.0832 19.2827 19.0333 19.8214C18.8737 19.804 18.7141 19.7866 18.5546 19.7691C18.5546 19.0897 18.5552 18.4103 18.5545 17.7308C18.5515 14.7502 18.5773 11.769 18.5319 8.789C18.5109 7.40895 17.7641 6.47463 16.3832 6.3382C15.1064 6.21205 14.194 6.86854 13.8776 8.16141C13.7577 8.6515 13.8017 9.18692 13.8012 9.7017C13.7966 14.686 13.7984 19.6704 13.7984 24.8069Z" fill="#003284"/>
</svg>
