<svg width="40" height="40" viewBox="0 0 40 40" fill="none" xmlns="http://www.w3.org/2000/svg">
<path d="M18.383 33.5077C15.1444 33.4047 12.5254 32.8989 10.0726 31.6079C7.86018 30.4434 7.80331 30.5091 6.43245 32.6785C6.07493 33.2443 5.69353 33.8039 5.25636 34.3098C4.53232 35.1476 3.65461 35.4547 2.63789 34.7923C1.50139 34.0518 0.91288 32.5252 1.57506 31.6104C2.19813 30.7497 3.00935 29.9878 3.85301 29.3266C5.01573 28.4153 5.42031 27.6135 4.99576 25.9609C3.83102 21.4274 5.40564 17.5113 8.78433 14.3671C12.0763 11.3034 15.9699 9.55682 20.5832 9.45547C23.5413 9.39047 26.5236 9.28797 29.4371 8.83583C30.8161 8.62183 32.2341 7.75121 33.3279 6.82368C35.7317 4.78538 37.5329 5.08779 38.416 8.08067C40.4228 14.8818 39.2474 21.1259 34.2587 26.2822C29.8552 30.8337 24.3646 33.3787 18.383 33.5077ZM25.9306 16.2824C22.9355 16.3477 19.4238 17.1158 16.7529 18.9229C14.3274 20.5639 12.1932 22.6324 9.96826 24.5552C9.31901 25.1163 9.09584 25.8844 9.7716 26.5991C10.5192 27.3898 11.265 27.0844 11.9488 26.4556C12.368 26.0701 12.7897 25.6851 13.1822 25.2736C16.8643 21.4129 21.1585 18.8663 26.7316 18.996C27.649 19.0173 28.4372 18.6677 28.4234 17.6072C28.4097 16.5556 27.6703 16.2371 26.711 16.2806C26.4514 16.2924 26.1908 16.2824 25.9306 16.2824Z" fill="#003284"/>
</svg>
