<svg width="40" height="40" viewBox="0 0 40 40" fill="none" xmlns="http://www.w3.org/2000/svg">
<path d="M17.943 1.65234C19.1852 1.50791 21.3873 1.55053 22.8201 1.72272C33.0938 2.95734 39.751 12.561 38.289 22.8605C37.1072 31.1864 30.2651 37.5769 21.5494 38.4952C13.6544 39.327 5.57381 34.2415 2.73177 26.6523C-0.257515 18.6699 2.44592 9.76154 9.20888 4.96322C11.916 3.04252 14.7318 2.02573 17.943 1.65234ZM17.703 22.9219C16.3783 21.4414 15.2985 20.134 14.1134 18.9302C11.2253 15.9966 10.985 16.0352 8.19255 19.1603C7.41595 20.0294 7.30962 20.8556 8.14807 21.699C10.9501 24.5179 13.7604 27.3287 16.5785 30.1315C17.4161 30.9646 18.3001 30.9267 19.1214 30.1082C23.3429 25.9011 27.5585 21.688 31.7659 17.467C32.6276 16.6025 32.6373 15.7409 31.8021 14.777C29.1213 11.6828 28.7849 11.6472 25.878 14.5884C23.2538 17.2436 20.6486 19.9175 17.703 22.9219Z" fill="#003284"/>
</svg>
