<svg width="32" height="33" viewBox="0 0 32 33" fill="none" xmlns="http://www.w3.org/2000/svg">
<path d="M16.1668 21.3437C18.6338 21.3437 20.6336 19.3459 20.6336 16.8813C20.6336 14.4168 18.6338 12.4189 16.1668 12.4189C13.7 12.4189 11.7002 14.4168 11.7002 16.8813C11.7002 19.3459 13.7 21.3437 16.1668 21.3437Z" stroke="black" stroke-width="1.67501" stroke-linecap="round" stroke-linejoin="round"/>
<path d="M20.6334 12.4191V17.9971C20.6334 18.8848 20.9864 19.736 21.6146 20.3637C22.2429 20.9913 23.095 21.3439 23.9835 21.3439C24.8719 21.3439 25.724 20.9913 26.3523 20.3637C26.9805 19.736 27.3335 18.8848 27.3335 17.9971V16.8815C27.3334 14.3637 26.4806 11.9199 24.9139 9.94753C23.3473 7.97521 21.1589 6.59034 18.7046 6.01812C16.2502 5.4459 13.6742 5.71997 11.3956 6.79578C9.11692 7.87158 7.26954 9.68584 6.15383 11.9435C5.0381 14.2013 4.71969 16.7697 5.25033 19.2311C5.78098 21.6925 7.12948 23.9022 9.07657 25.5009C11.0237 27.0997 13.4548 27.9933 15.9748 28.0366C18.4947 28.0799 20.9552 27.2703 22.9562 25.7394" stroke="black" stroke-width="1.67501" stroke-linecap="round" stroke-linejoin="round"/>
</svg>
