<svg width="32" height="33" viewBox="0 0 32 33" fill="none" xmlns="http://www.w3.org/2000/svg">
<path d="M27 14.6637C27 23.2111 16 30.5374 16 30.5374C16 30.5374 5 23.2111 5 14.6637C5 11.7492 6.15893 8.95397 8.22182 6.89304C10.2848 4.83212 13.0826 3.67432 16 3.67432C18.9174 3.67432 21.7152 4.83212 23.7782 6.89304C25.8411 8.95397 27 11.7492 27 14.6637Z" stroke="black" stroke-width="1.83333" stroke-linecap="round" stroke-linejoin="round"/>
<path d="M16 18.3267C18.0251 18.3267 19.6667 16.6867 19.6667 14.6635C19.6667 12.6404 18.0251 11.0004 16 11.0004C13.975 11.0004 12.3334 12.6404 12.3334 14.6635C12.3334 16.6867 13.975 18.3267 16 18.3267Z" stroke="black" stroke-width="1.83333" stroke-linecap="round" stroke-linejoin="round"/>
</svg>
