<svg width="140" height="140" viewBox="0 0 140 140" fill="none" xmlns="http://www.w3.org/2000/svg">
<g clip-path="url(#clip0_1_256)">
<path d="M140 88.3161C140 105.544 140 122.772 140 140C93.3333 140 46.6667 140 0 140C0 120.858 0 101.716 0 82.5734C0.722108 83.658 1.52305 84.565 3.00633 84.5587C8.78943 84.534 14.5727 84.5526 20.3559 84.546C21.8099 84.5444 22.7422 83.7923 23.2209 82.4474C23.438 81.8374 23.6342 81.2198 23.8747 80.5016C24.1571 80.7648 24.2906 80.8836 24.4179 81.0085C27.6988 84.2272 30.7735 87.6951 34.3027 90.6134C41.3517 96.4422 48.6445 101.976 55.8474 107.618C58.8355 109.959 61.9806 112.015 65.7071 113.033C69.3423 114.026 72.879 114.204 76.2367 112.102C76.4673 111.958 76.8583 111.892 77.1068 111.98C81.303 113.474 86.4862 111.024 88.8592 106.921C89.2121 106.311 89.5617 106.206 90.2602 106.25C94.9006 106.542 98.5997 104.887 101.141 100.858C101.412 100.429 102.069 100.068 102.589 99.9998C108.192 99.263 111.746 95.1029 111.512 89.4937C111.499 89.1685 111.542 88.6827 111.748 88.532C113.082 87.559 114.469 86.6583 115.933 85.6703C116.161 86.3305 116.32 86.7505 116.45 87.1791C117.304 89.9815 117.905 90.4346 120.809 90.4351C125.909 90.436 131.01 90.3981 136.11 90.4557C137.873 90.4756 139.2 89.934 140 88.3161Z" fill="white"/>
<path d="M0 28.4283C0 18.9547 0 9.48118 0 0C46.6667 0 93.3333 0 140 0C140 11.398 140 22.7845 140 34.171C139.2 32.5523 137.895 31.9448 136.111 32.0573C132.886 32.2608 129.646 32.2793 126.427 32.5462C118.146 33.2329 110.009 34.6589 102.213 37.6657C99.7106 38.6307 99.2765 39.243 99.2679 41.9305C98.8212 41.7782 98.3869 41.6553 97.9721 41.4848C93.0939 39.4798 88.2049 37.5003 83.3477 35.4455C80.1942 34.1116 77.0195 32.8994 73.5819 32.537C68.0397 31.9527 63.3315 33.9567 58.9674 37.1433C58.3607 37.5863 57.4986 37.8914 56.7517 37.8976C49.874 37.9543 42.9958 37.931 36.1177 37.931C35.681 37.931 35.2442 37.931 34.6919 37.931C34.7675 37.2393 34.7769 36.7382 34.8828 36.2583C35.3032 34.3518 34.6425 32.9031 32.9489 32.0283C31.5012 31.2805 30.0103 30.5558 28.4592 30.0787C20.2165 27.543 11.6806 26.8699 3.14198 26.2565C1.54814 26.142 0.632363 27.1032 0 28.4283Z" fill="white"/>
<path d="M0 28.4283C0.632363 27.1033 1.54814 26.1421 3.14195 26.2565C11.6806 26.8699 20.2165 27.543 28.4592 30.0787C30.0103 30.5558 31.5011 31.2805 32.9488 32.0283C34.6424 32.9032 35.3032 34.3519 34.8827 36.2583C34.7769 36.7382 34.7675 37.2393 34.6919 37.931C35.2442 37.931 35.6809 37.931 36.1176 37.931C42.9957 37.931 49.874 37.9543 56.7516 37.8976C57.4985 37.8915 58.3606 37.5863 58.9674 37.1433C63.3315 33.9567 68.0397 31.9527 73.5819 32.537C77.0195 32.8994 80.1942 34.1116 83.3476 35.4456C88.2048 37.5003 93.0939 39.4798 97.9721 41.4849C98.3869 41.6553 98.8212 41.7782 99.2679 41.9305C99.2765 39.2431 99.7106 38.6307 102.213 37.6657C110.009 34.6589 118.146 33.2329 126.427 32.5462C129.646 32.2793 132.886 32.2608 136.111 32.0573C137.895 31.9448 139.2 32.5523 140 34.171C140 52.2193 140 70.2677 140 88.3161C139.2 89.934 137.873 90.4756 136.11 90.4557C131.01 90.3981 125.909 90.4361 120.809 90.4351C117.905 90.4346 117.304 89.9816 116.45 87.1791C116.32 86.7505 116.16 86.3306 115.933 85.6703C114.469 86.6583 113.082 87.559 111.748 88.5321C111.542 88.6828 111.499 89.1684 111.512 89.4937C111.746 95.103 108.192 99.263 102.589 99.9998C102.069 100.068 101.412 100.429 101.141 100.858C98.5997 104.887 94.9005 106.542 90.2601 106.25C89.5616 106.206 89.212 106.311 88.8591 106.921C86.4862 111.024 81.303 113.474 77.1067 111.98C76.8583 111.892 76.4673 111.958 76.2366 112.102C72.879 114.204 69.3422 114.026 65.707 113.033C61.9806 112.015 58.8355 109.959 55.8474 107.618C48.6445 101.976 41.3517 96.4422 34.3027 90.6134C30.7735 87.6951 27.6987 84.2273 24.4179 81.0085C24.2905 80.8836 24.1571 80.7648 23.8746 80.5016C23.6341 81.2198 23.438 81.8374 23.2208 82.4475C22.7422 83.7924 21.8098 84.5444 20.3559 84.5461C14.5727 84.5527 8.78938 84.534 3.00627 84.5587C1.52305 84.565 0.722108 83.658 0 82.5734C0 64.525 0 46.4767 0 28.4283ZM84.3502 103.489C79.8352 98.8348 75.6166 94.4895 71.4048 90.1376C71.058 89.7793 70.7061 89.4081 70.4452 88.9879C69.7008 87.7889 69.9209 86.3192 70.9373 85.3731C71.9808 84.4019 73.5581 84.3153 74.6909 85.2168C75.1509 85.5828 75.5334 86.0462 75.9513 86.4652C80.1961 90.7213 84.3923 95.0274 88.7083 99.21C90.5897 101.033 93.419 100.798 95.3048 98.9569C96.1246 98.1567 96.2342 97.5578 95.2864 96.6197C90.1065 91.4927 85.0024 86.2889 79.895 81.0892C78.4325 79.6003 78.3876 77.8513 79.6813 76.6305C80.9517 75.4317 82.5987 75.5588 84.0336 77.0052C85.4452 78.4282 86.8114 79.8964 88.2269 81.3154C92.1837 85.2822 96.1375 89.2522 100.132 93.1803C101.35 94.3778 102.515 94.4024 103.94 93.4853C105.605 92.4142 106.187 90.656 105.278 88.865C104.709 87.741 103.998 86.6336 103.134 85.7244C101.003 83.4819 98.8698 81.2145 96.5198 79.2126C88.6503 72.5084 80.6904 65.9103 72.7374 59.3049C72.4502 59.0663 71.8215 59.0262 71.4385 59.1537C70.0182 59.6263 68.6626 60.3084 67.227 60.7146C66.219 60.9997 65.4768 61.4477 64.7836 62.2462C60.7314 66.9147 55.7211 68.8082 49.6108 67.2097C44.8909 65.975 42.6905 62.399 43.6372 57.5818C44.5332 53.0222 46.9541 49.2548 49.8201 45.7222C50.316 45.111 50.8388 44.5217 51.4518 43.8018C45.405 43.8018 39.5907 43.8018 33.7284 43.8018C33.3649 45.4861 33.0754 47.1406 32.6472 48.7584C30.5061 56.8473 28.3191 64.9241 26.1874 73.0154C26.0583 73.5055 26.0564 74.2875 26.3498 74.5913C29.7979 78.1622 33.051 81.9872 36.8658 85.1246C45.1628 91.9484 53.7024 98.4828 62.2721 104.965C63.9911 106.265 66.2551 106.883 68.3267 107.659C69.1429 107.965 70.1199 107.841 71.0237 107.913C71.1108 107.736 71.198 107.559 71.2851 107.382C68.2791 104.469 65.2586 101.571 62.2746 98.6353C61.1391 97.5183 60.0328 96.3616 59.0129 95.1398C57.9851 93.9083 58.1584 92.2441 59.2885 91.1955C60.3951 90.1688 62.067 90.1743 63.2492 91.2361C63.6887 91.6308 64.0709 92.0885 64.4909 92.5058C68.8836 96.871 73.251 101.262 77.6902 105.58C79.0045 106.858 80.2639 106.948 81.7851 105.922C82.7635 105.261 83.529 104.285 84.3502 103.489ZM108.875 83.38C110.429 82.3373 111.932 81.3874 113.354 80.3287C113.662 80.0992 113.919 79.3929 113.796 79.0513C110.351 69.4677 106.86 59.9001 103.34 50.3437C103.193 49.9439 102.744 49.5332 102.339 49.3683C94.421 46.1507 86.4915 42.9622 78.5586 39.7822C73.9022 37.9156 69.2427 37.4714 64.8068 40.3C59.689 43.5634 55.2137 47.5778 51.9643 52.7487C50.8 54.6015 50.0919 56.7643 49.346 58.8465C49.0047 59.7993 49.1044 60.9859 50.3823 61.2976C51.7319 61.6269 53.1553 61.9549 54.5187 61.8645C57.5339 61.6644 59.4812 59.6586 61.2543 57.4278C61.8278 56.7064 62.5337 55.9109 63.3511 55.5959C65.9241 54.6043 68.6177 53.9248 71.1885 52.9282C72.9242 52.2553 74.1942 52.5825 75.5083 53.8223C77.6598 55.8521 79.8988 57.7931 82.1565 59.7058C91.21 67.376 100.986 74.2279 108.875 83.38ZM134.087 84.5518C134.087 68.9035 134.087 53.4824 134.087 37.9517C124.575 38.2097 115.338 39.4284 106.412 42.3405C108.263 47.0088 110.177 51.4872 111.824 56.062C115.09 65.1337 118.199 74.2612 121.409 83.3533C121.571 83.8123 122.055 84.4927 122.401 84.5001C126.267 84.5821 130.134 84.5518 134.087 84.5518ZM5.91742 32.2804C5.91742 47.8485 5.91742 63.26 5.91742 78.6708C10.1059 78.6708 14.187 78.6708 18.3244 78.6708C19.3783 75.1815 20.4524 71.7543 21.4481 68.3044C24.3616 58.2088 27.2139 48.1 28.8496 37.6902C29.0543 36.3875 28.503 36.116 27.5631 35.8303C20.5519 33.699 13.3129 32.989 5.91742 32.2804Z" fill="#003284"/>
<path d="M84.3502 103.489C83.529 104.285 82.7635 105.261 81.7851 105.922C80.264 106.948 79.0046 106.858 77.6903 105.58C73.2511 101.262 68.8837 96.871 64.491 92.5058C64.071 92.0885 63.6887 91.6308 63.2492 91.236C62.067 90.1742 60.3952 90.1688 59.2886 91.1955C58.1585 92.244 57.9852 93.9083 59.013 95.1397C60.0328 96.3616 61.1391 97.5183 62.2746 98.6353C65.2586 101.571 68.2792 104.469 71.2851 107.382C71.198 107.559 71.1109 107.736 71.0238 107.913C70.12 107.841 69.1429 107.965 68.3268 107.659C66.2552 106.883 63.9911 106.265 62.2721 104.965C53.7025 98.4828 45.1629 91.9483 36.8658 85.1246C33.0511 81.9871 29.7979 78.1621 26.3499 74.5913C26.0565 74.2874 26.0584 73.5055 26.1875 73.0153C28.3192 64.924 30.5062 56.8473 32.6472 48.7584C33.0755 47.1406 33.365 45.486 33.7285 43.8018C39.5908 43.8018 45.405 43.8018 51.4518 43.8018C50.8389 44.5216 50.3161 45.1109 49.8202 45.7222C46.9542 49.2548 44.5333 53.0222 43.6372 57.5817C42.6906 62.3989 44.891 65.975 49.6109 67.2097C55.7212 68.8081 60.7315 66.9146 64.7837 62.2462C65.4768 61.4477 66.219 60.9997 67.227 60.7145C68.6627 60.3084 70.0183 59.6263 71.4386 59.1536C71.8216 59.0262 72.4503 59.0663 72.7375 59.3048C80.6905 65.9102 88.6504 72.5084 96.5199 79.2125C98.8699 81.2145 101.003 83.4819 103.134 85.7244C103.998 86.6335 104.709 87.741 105.278 88.8649C106.187 90.656 105.605 92.4141 103.94 93.4852C102.515 94.4024 101.35 94.3777 100.133 93.1802C96.1376 89.2521 92.1838 85.2821 88.227 81.3154C86.8115 79.8964 85.4453 78.4282 84.0336 77.0052C82.5988 75.5587 80.9518 75.4317 79.6814 76.6305C78.3877 77.8513 78.4326 79.6003 79.895 81.0892C85.0025 86.2889 90.1066 91.4927 95.2865 96.6196C96.2343 97.5578 96.1247 98.1566 95.3049 98.9569C93.4191 100.798 90.5898 101.033 88.7084 99.2099C84.3924 95.0274 80.1962 90.7212 75.9514 86.4652C75.5335 86.0462 75.151 85.5828 74.691 85.2167C73.5582 84.3153 71.9808 84.4019 70.9373 85.3731C69.9209 86.3191 69.7008 87.7888 70.4453 88.9879C70.7062 89.4081 71.0581 89.7793 71.4049 90.1376C75.6166 94.4895 79.8352 98.8348 84.3502 103.489Z" fill="white"/>
<path d="M108.875 83.3801C100.986 74.2279 91.21 67.376 82.1565 59.7058C79.8988 57.7931 77.6598 55.8521 75.5083 53.8223C74.1942 52.5825 72.9242 52.2553 71.1885 52.9282C68.6177 53.9249 65.9241 54.6043 63.3511 55.5959C62.5337 55.9109 61.8278 56.7064 61.2543 57.4278C59.4812 59.6586 57.5339 61.6644 54.5187 61.8645C53.1553 61.955 51.7319 61.6269 50.3823 61.2976C49.1044 60.9859 49.0047 59.7994 49.346 58.8466C50.0919 56.7642 50.8 54.6016 51.9643 52.7487C55.2137 47.5778 59.689 43.5635 64.8067 40.3001C69.2426 37.4715 73.9022 37.9156 78.5586 39.7822C86.4915 42.9622 94.421 46.1507 102.339 49.3683C102.744 49.5333 103.193 49.9439 103.34 50.3438C106.86 59.9002 110.351 69.4677 113.796 79.0514C113.919 79.393 113.662 80.0992 113.354 80.3287C111.932 81.3874 110.429 82.3373 108.875 83.3801Z" fill="white"/>
<path d="M134.087 84.5518C130.134 84.5518 126.267 84.5821 122.401 84.5001C122.055 84.4927 121.571 83.8123 121.409 83.3533C118.199 74.2612 115.09 65.1337 111.824 56.062C110.177 51.4872 108.263 47.0087 106.412 42.3405C115.338 39.4284 124.575 38.2097 134.087 37.9517C134.087 53.4824 134.087 68.9035 134.087 84.5518Z" fill="white"/>
<path d="M5.91742 32.2805C13.3129 32.989 20.5519 33.699 27.5631 35.8303C28.503 36.116 29.0543 36.3875 28.8496 37.6902C27.2139 48.1 24.3617 58.2089 21.4481 68.3044C20.4525 71.7543 19.3784 75.1815 18.3245 78.6708C14.187 78.6708 10.1059 78.6708 5.91745 78.6708C5.91742 63.26 5.91742 47.8485 5.91742 32.2805Z" fill="white"/>
</g>
<defs>
<clipPath id="clip0_1_256">
<rect width="140" height="140" fill="white"/>
</clipPath>
</defs>
</svg>
