<svg width="32" height="33" viewBox="0 0 32 33" fill="none" xmlns="http://www.w3.org/2000/svg">
<path d="M27.4931 22.3886V25.929C27.4945 26.2577 27.4271 26.583 27.2953 26.8841C27.1635 27.1853 26.9702 27.4556 26.7278 27.6778C26.4854 27.8999 26.1992 28.0691 25.8875 28.1745C25.5759 28.2797 25.2456 28.3188 24.918 28.2892C21.283 27.8947 17.7914 26.6537 14.7237 24.6662C11.8695 22.8544 9.44972 20.4369 7.63608 17.5854C5.63971 14.5067 4.39733 11.0015 4.00959 7.35368C3.98007 7.02734 4.01889 6.69843 4.12358 6.38789C4.22828 6.07736 4.39654 5.79201 4.61766 5.55C4.83879 5.30799 5.10794 5.11463 5.40796 4.98224C5.70799 4.84984 6.03232 4.7813 6.36031 4.781H9.90409C10.4774 4.77536 11.0331 4.97817 11.4678 5.35163C11.9025 5.72509 12.1864 6.24371 12.2667 6.81083C12.4162 7.94383 12.6936 9.0563 13.0935 10.127C13.2525 10.5494 13.2868 11.0085 13.1927 11.4498C13.0984 11.8911 12.8796 12.2962 12.562 12.6171L11.0618 14.1158C12.7433 17.0704 15.192 19.5167 18.1494 21.1966L19.6496 19.6979C19.9707 19.3806 20.3762 19.1619 20.818 19.0678C21.2597 18.9737 21.7192 19.008 22.142 19.1668C23.2138 19.5663 24.3273 19.8435 25.4614 19.9929C26.0352 20.0738 26.5593 20.3625 26.9339 20.8042C27.3085 21.2459 27.5076 21.8098 27.4931 22.3886Z" stroke="black" stroke-width="1.7719" stroke-linecap="round" stroke-linejoin="round"/>
</svg>
